<?xml version="1.0" encoding="utf-8"?>
<!-- Generator: Adobe Illustrator 26.0.1, SVG Export Plug-In . SVG Version: 6.00 Build 0)  -->
<svg version="1.1" id="Lager_1" xmlns="http://www.w3.org/2000/svg" xmlns:xlink="http://www.w3.org/1999/xlink" x="0px" y="0px"
	 viewBox="0 0 445.28 168.28" style="enable-background:new 0 0 445.28 168.28;" xml:space="preserve">
<style type="text/css">
	.st0{fill:#870AA0;}
	.st1{fill:#FA1996;}
	.st2{fill:#FF5F0A;}
</style>
<g>
	<g>
		<path class="st0" d="M367.33,67.94c-10.5-10.5-23.18-15.76-38.04-15.76v26.33c7.59,0,14.45,3.08,19.42,8.04L367.33,67.94z"/>
		<path class="st0" d="M367.33,67.94l-18.62,18.62c4.97,4.97,8.04,11.84,8.04,19.42h26.33C383.09,91.12,377.84,78.45,367.33,67.94"
			/>
		<path class="st0" d="M291.25,67.94c-10.5,10.5-15.76,23.18-15.76,38.04h26.33c0-7.59,3.08-14.45,8.04-19.42L291.25,67.94z"/>
		<path class="st0" d="M329.29,78.51V52.18c-14.86,0-27.53,5.25-38.04,15.76l18.62,18.62C314.84,81.59,321.71,78.51,329.29,78.51"/>
	</g>
	<rect x="194.24" y="54.02" class="st0" width="26.33" height="51.97"/>
	<rect x="194.24" y="105.98" class="st0" width="26.33" height="51.98"/>
	<rect x="91.4" y="53.91" class="st0" width="26.33" height="103.94"/>
	<g>
		<path class="st1" d="M417.72,43.54c9.54,0,17.42-7.88,17.42-17.62c0-9.54-7.88-17.41-17.42-17.41c-9.54,0-17.42,7.88-17.42,17.41
			C400.31,35.66,408.19,43.54,417.72,43.54"/>
	</g>
	<rect x="403.47" y="137.17" class="st0" width="28.51" height="20.79"/>
	<rect x="403.47" y="116.38" class="st2" width="28.51" height="20.79"/>
	<rect x="403.47" y="95.59" class="st2" width="28.51" height="20.79"/>
	<rect x="403.47" y="74.8" class="st1" width="28.51" height="20.79"/>
	<rect x="403.47" y="54.01" class="st1" width="28.51" height="20.79"/>
	<rect x="141.7" y="137.17" class="st0" width="28.51" height="20.79"/>
	<rect x="141.7" y="116.38" class="st0" width="28.51" height="20.79"/>
	<rect x="141.7" y="95.59" class="st0" width="28.51" height="20.79"/>
	<rect x="141.7" y="74.8" class="st0" width="28.51" height="20.79"/>
	<rect x="141.7" y="54.01" class="st1" width="28.51" height="20.79"/>
	<rect x="141.7" y="33.22" class="st1" width="28.51" height="20.79"/>
	<rect x="141.7" y="12.44" class="st1" width="28.51" height="20.79"/>
	<g>
		<path class="st1" d="M101.97,67.94c-10.5-10.5-23.18-15.76-38.04-15.76v26.33c7.59,0,14.45,3.08,19.42,8.04L101.97,67.94z"/>
		<path class="st1" d="M101.97,67.94L83.36,86.56c4.97,4.97,8.04,11.84,8.04,19.42h26.33C117.73,91.12,112.48,78.45,101.97,67.94"/>
		<path class="st1" d="M91.4,105.98c0,7.58-3.07,14.45-8.04,19.42l18.62,18.62c10.5-10.5,15.76-23.18,15.76-38.04H91.4z"/>
		<path class="st1" d="M83.36,125.4c-4.97,4.97-11.84,8.04-19.42,8.04v26.33c14.86,0,27.53-5.25,38.04-15.76L83.36,125.4z"/>
		<path class="st1" d="M44.51,125.4L25.9,144.02c10.5,10.5,23.18,15.76,38.04,15.76v-26.33C56.35,133.45,49.48,130.37,44.51,125.4"
			/>
		<path class="st1" d="M36.47,105.98H10.14c0,14.86,5.25,27.53,15.76,38.04l18.62-18.62C39.54,120.43,36.47,113.56,36.47,105.98"/>
		<path class="st1" d="M25.9,67.94c-10.5,10.5-15.76,23.18-15.76,38.04h26.33c0-7.59,3.08-14.45,8.04-19.42L25.9,67.94z"/>
		<path class="st2" d="M63.94,78.51V52.18c-14.86,0-27.53,5.25-38.04,15.76l18.62,18.62C49.48,81.59,56.35,78.51,63.94,78.51"/>
		<path class="st2" d="M286.07,67.94c-10.5-10.5-23.18-15.76-38.04-15.76v26.33c7.59,0,14.45,3.08,19.42,8.04L286.07,67.94z"/>
		<path class="st2" d="M286.07,67.94l-18.62,18.62c4.97,4.97,8.04,11.84,8.04,19.42h26.33C301.83,91.12,296.58,78.45,286.07,67.94"
			/>
		<path class="st2" d="M209.99,67.94c-10.5,10.5-15.76,23.18-15.76,38.04h26.33c0-7.59,3.08-14.45,8.04-19.42L209.99,67.94z"/>
		<path class="st2" d="M248.03,78.51V52.18c-14.86,0-27.53,5.25-38.04,15.76l18.62,18.62C233.58,81.59,240.45,78.51,248.03,78.51"/>
	</g>
	<rect x="356.76" y="105.98" class="st1" width="26.33" height="25.99"/>
	<rect x="356.76" y="131.97" class="st1" width="26.33" height="25.99"/>
	<rect x="275.5" y="105.98" class="st1" width="26.33" height="25.99"/>
	<rect x="275.5" y="131.97" class="st1" width="26.33" height="25.99"/>
</g>
</svg>
