<?xml version="1.0" encoding="utf-8"?>
<!-- Generator: Adobe Illustrator 26.0.1, SVG Export Plug-In . SVG Version: 6.00 Build 0)  -->
<svg version="1.1" id="Lager_1" xmlns="http://www.w3.org/2000/svg" xmlns:xlink="http://www.w3.org/1999/xlink" x="0px" y="0px"
	 viewBox="0 0 896.53 735.08" style="enable-background:new 0 0 896.53 735.08;" xml:space="preserve">
<style type="text/css">
	.st0{fill:#FFFFFF;}
	.st1{fill:#FFEDBE;}
	.st2{fill:#FECC45;}
</style>
<g>
	<path class="st0" d="M201.12,326.02c54.19,54.05,84.6,127.47,84.5,204h240.27c0-0.21,0.01-0.41,0.01-0.62
		c0.17-140.14-55.39-274.6-154.45-373.72L201.12,326.02z"/>
	<path class="st1" d="M525.89,530.03H285.62c0.1,76.53-30.31,149.95-84.5,204l0.07,0.07h283.66
		C511.69,670.09,525.9,600.79,525.89,530.03z"/>
	<path class="st2" d="M371.46,155.68C276.69,60.6,145.99,1.36,1.47,0.03v241.54c74.96,1.03,146.63,31.29,199.65,84.45l0,0
		L371.46,155.68L371.46,155.68z"/>
</g>
</svg>
