<?xml version="1.0" encoding="utf-8"?>
<!-- Generator: Adobe Illustrator 26.0.1, SVG Export Plug-In . SVG Version: 6.00 Build 0)  -->
<svg version="1.1" id="Lager_1" xmlns="http://www.w3.org/2000/svg" xmlns:xlink="http://www.w3.org/1999/xlink" x="0px" y="0px"
	 viewBox="0 0 1059.13 1080" style="enable-background:new 0 0 1059.13 1080;" xml:space="preserve">
<style type="text/css">
	.st0{fill:#2819FF;}
	.st1{fill:#23C3FF;}
	.st2{fill:#FFFFFF;}
</style>
<g>
	<polygon class="st0" points="242.14,1021.55 242.14,952.81 242.14,884.07 242.14,815.33 242.14,746.6 242.14,677.87 59.87,677.87 
		59.87,746.6 59.87,815.33 59.87,884.07 59.87,952.81 59.87,1021.55 	"/>
	<polygon class="st1" points="242.14,677.86 242.14,609.13 242.14,540.38 242.14,471.65 242.14,402.91 242.14,334.18 59.87,334.18 
		59.87,402.91 59.87,471.65 59.87,540.38 59.87,609.13 59.87,677.86 	"/>
	<polygon class="st2" points="242.14,334.18 242.14,265.44 242.14,196.71 242.14,127.96 242.14,59.23 59.87,59.23 59.87,127.96 
		59.87,196.71 59.87,265.44 59.87,334.18 	"/>
	<polygon class="st0" points="497.33,1021.55 497.33,952.81 497.33,884.07 315.05,884.07 315.05,952.81 315.05,1021.55 	"/>
	<polygon class="st1" points="497.33,884.07 497.33,815.34 497.33,746.61 497.33,677.86 497.33,609.12 315.05,609.12 315.05,677.86 
		315.05,746.61 315.05,815.34 315.05,884.07 	"/>
	<rect x="315.05" y="334.17" class="st2" width="182.27" height="68.73"/>
	<path class="st2" d="M315.05,334.17h182.27v-68.73H315.05V334.17z M497.33,609.12v-68.73v-68.73v-68.75H315.05v68.75v68.73v68.73
		H497.33z"/>
	<polygon class="st0" points="752.62,1021.55 752.62,952.81 752.62,884.07 752.62,815.33 570.35,815.33 570.35,884.07 
		570.35,952.81 570.35,1021.55 	"/>
	<polygon class="st1" points="752.62,815.34 752.62,746.6 752.62,677.87 570.35,677.87 570.35,746.6 570.35,815.34 	"/>
	<polygon class="st2" points="752.62,677.86 752.62,609.13 752.62,540.38 570.35,540.38 570.35,609.13 570.35,677.86 	"/>
	<rect x="825.42" y="952.82" class="st0" width="182.27" height="68.73"/>
	<polygon class="st1" points="1007.7,952.81 1007.7,884.08 1007.7,815.33 825.43,815.33 825.43,884.08 825.43,952.81 	"/>
	<rect x="825.42" y="746.61" class="st2" width="182.27" height="68.73"/>
</g>
</svg>
