<?xml version="1.0" encoding="utf-8"?>
<!-- Generator: Adobe Illustrator 26.0.1, SVG Export Plug-In . SVG Version: 6.00 Build 0)  -->
<svg version="1.1" id="Lager_1" xmlns="http://www.w3.org/2000/svg" xmlns:xlink="http://www.w3.org/1999/xlink" x="0px" y="0px"
	 viewBox="0 0 1059.13 1080" style="enable-background:new 0 0 1059.13 1080;" xml:space="preserve">
<style type="text/css">
	.st0{fill:none;}
	.st1{fill:#2819FF;}
	.st2{fill:#A1ABFF;}
	.st3{fill:#870AA0;}
</style>
<g>
	<polygon class="st0" points="423.51,634.98 608.46,634.98 640.3,474.16 455.55,474.16 	"/>
	<polygon class="st1" points="455.55,474.16 259.02,474.16 226.98,634.98 423.51,634.98 	"/>
	<polygon class="st1" points="145.32,1044.84 341.85,1044.84 385.69,824.82 189.15,824.82 	"/>
	<polygon class="st1" points="543.02,35.16 346.48,35.16 296.84,284.32 493.38,284.32 	"/>
	<polygon class="st1" points="640.3,474.16 608.46,634.98 804.99,634.98 836.84,474.16 	"/>
	<polygon class="st1" points="527.29,1044.84 723.83,1044.84 767.4,824.82 570.86,824.82 	"/>
	<polygon class="st1" points="923.77,35.16 727.24,35.16 677.9,284.32 874.43,284.32 	"/>
	<polygon class="st2" points="640.3,474.16 836.84,474.16 1034.56,474.16 1034.56,284.32 874.43,284.32 677.9,284.32 493.38,284.32 
		296.84,284.32 87.29,284.32 87.29,474.16 259.02,474.16 455.55,474.16 	"/>
	<polygon class="st3" points="423.51,634.98 226.98,634.98 24.57,634.98 24.57,824.82 189.15,824.82 385.69,824.82 570.86,824.82 
		767.4,824.82 971.84,824.82 971.84,634.98 804.99,634.98 608.46,634.98 	"/>
</g>
</svg>
